<svg xmlns="http://www.w3.org/2000/svg" width="80" height="80" viewBox="0 0 80 80" fill="none">
    <defs>
        <linearGradient id="full-gradient" x1="0" y1="0" x2="1" y2="0">
            <stop offset="0%" stop-color="#C31F97" />
            <stop offset="100%" stop-color="#5090E7" />
        </linearGradient>
        `) : ''}
    </defs>
    <g id="stars">
        <g id="star_back">
            <path id="Star 3"
                d="M40 0L50.1099 26.0849L78.0423 27.6393L56.3582 45.3151L63.5114 72.3607L40 57.2L16.4886 72.3607L23.6418 45.3151L1.95774 27.6393L29.8901 26.0849L40 0Z"
                fill="url(#full-gradient)" />
        </g>
        <g id="star_front">
            <path id="Star 4"
                d="M40 2.76715L49.1775 26.4463L49.4105 27.0475L50.0543 27.0834L75.4105 28.4944L55.7263 44.54L55.2265 44.9474L55.3914 45.5708L61.8849 70.122L40.5419 56.3596L40 56.0101L39.4581 56.3596L18.1151 70.122L24.6086 45.5708L24.7735 44.9474L24.2737 44.54L4.58945 28.4944L29.9457 27.0834L30.5895 27.0475L30.8225 26.4463L40 2.76715Z"
                fill="url(#full-gradient)" stroke="url(#full-gradient)" stroke-width="4" />
        </g>
    </g>
</svg>